<svg width="46" height="31" viewBox="0 0 46 31" fill="none" xmlns="http://www.w3.org/2000/svg">
<path fill-rule="evenodd" clip-rule="evenodd" d="M13.2563 0.204245C8.14994 0.97087 3.95951 3.97748 1.68655 8.50542C-0.704938 13.2697 -0.546241 18.7395 2.11877 23.404C4.22866 27.0969 8.10431 29.8884 12.3286 30.7577C13.4605 30.9906 16.1827 31.0773 17.4675 30.9212C18.8602 30.7521 20.5501 30.3506 21.6281 29.9329C23.2586 29.3009 23.9495 28.7458 27.5267 25.1942C29.3545 23.3794 30.9067 21.8438 30.9759 21.7818C31.1134 21.6584 38.742 14.4525 39.8878 13.3637C40.278 12.9928 40.8674 12.4337 41.1976 12.1213C41.5278 11.8088 42.7424 10.6583 43.897 9.56475L45.996 7.57637L45.998 3.90468L46 0.232881L44.281 0.161509C41.8401 0.0600792 22.3154 0.071883 22.3154 0.174734C22.3154 0.221623 22.6961 0.44831 23.1613 0.678385C25.414 1.79258 27.9584 4.07792 29.4115 6.29211L30.2184 7.52172H32.5974C34.0193 7.52172 34.9763 7.56326 34.9763 7.62512C34.9763 7.68196 34.131 8.55493 33.0979 9.56518C32.0647 10.5753 29.302 13.2986 26.9585 15.617C20.4088 22.0961 20.3422 22.1567 19.0191 22.8317C17.5052 23.6041 15.2214 23.8606 13.5838 23.4419C11.3244 22.8644 9.27643 21.1927 8.2068 19.0528C7.38821 17.4153 7.178 15.1964 7.67876 13.4785C8.6293 10.2176 11.2619 7.92985 14.5203 7.53309C15.6991 7.38958 17.8404 7.5931 17.8404 7.84864C17.8404 7.89859 15.7984 9.97396 13.3027 12.4606C8.11621 17.628 8.56993 16.9275 9.35076 18.561C10.1671 20.2688 12.2569 21.9805 13.7118 22.133L14.1841 22.1825L21.4852 14.863L28.7863 7.54369L28.5306 7.12278C27.8232 5.95896 26.364 4.35532 25.0986 3.35097C22.8539 1.5695 20.3764 0.557172 17.2619 0.148939C15.6498 -0.0624459 14.9701 -0.0530457 13.2563 0.204245ZM27.6793 26.6917C24.8215 29.5261 24.0024 30.2077 22.9156 30.6553C22.646 30.7663 22.4252 30.8964 22.425 30.9442C22.4248 30.9922 26.9064 31.0034 32.3841 30.9689C37.8619 30.9346 43.1664 30.9077 44.1718 30.9092L46 30.9118V27.3595V23.8073H38.2937H30.5874L27.6793 26.6917Z" fill="url(#paint0_linear_2_25)"/>
<defs>
<linearGradient id="paint0_linear_2_25" x1="0" y1="15.5" x2="46" y2="15.5" gradientUnits="userSpaceOnUse">
<stop stop-color="#5F1CFB"/>
<stop offset="1" stop-color="#9DF5B9"/>
</linearGradient>
</defs>
</svg>
