<svg xmlns="http://www.w3.org/2000/svg" xmlns:xlink="http://www.w3.org/1999/xlink" viewBox="0 0 1153.69 267.67"><defs><style>.cls-1{fill:url(#linear-gradient);}.cls-2{fill:url(#linear-gradient-2);}.cls-3{fill:url(#linear-gradient-3);}.cls-4{fill:url(#linear-gradient-4);}.cls-5{fill:url(#linear-gradient-5);}.cls-6{fill:url(#linear-gradient-6);}.cls-7{fill:url(#linear-gradient-7);}.cls-8{fill:url(#linear-gradient-8);}.cls-9{fill:url(#linear-gradient-9);}.cls-10{fill:url(#linear-gradient-10);}.cls-11{fill:url(#linear-gradient-11);}.cls-12{fill:url(#linear-gradient-12);}.cls-13{fill:url(#linear-gradient-13);}.cls-14{fill:url(#linear-gradient-14);}.cls-15{fill:url(#linear-gradient-15);}.cls-16{fill:url(#linear-gradient-16);}.cls-17{fill:url(#linear-gradient-17);}</style><linearGradient id="linear-gradient" x1="275.98" y1="236.71" x2="325.51" y2="236.71" gradientUnits="userSpaceOnUse"><stop offset="0" stop-color="#6329f8"/><stop offset="1" stop-color="#96ddc0"/></linearGradient><linearGradient id="linear-gradient-2" x1="350.68" y1="236.71" x2="400.21" y2="236.71" xlink:href="#linear-gradient"/><linearGradient id="linear-gradient-3" x1="425.38" y1="236.71" x2="470.79" y2="236.71" xlink:href="#linear-gradient"/><linearGradient id="linear-gradient-4" x1="495.95" y1="236.71" x2="545.49" y2="236.71" xlink:href="#linear-gradient"/><linearGradient id="linear-gradient-5" x1="570.65" y1="236.71" x2="616.06" y2="236.71" xlink:href="#linear-gradient"/><linearGradient id="linear-gradient-6" x1="641.22" y1="236.71" x2="653.61" y2="236.71" xlink:href="#linear-gradient"/><linearGradient id="linear-gradient-7" x1="678.77" y1="236.71" x2="728.31" y2="236.71" xlink:href="#linear-gradient"/><linearGradient id="linear-gradient-8" x1="753.47" y1="236.71" x2="803.01" y2="236.71" xlink:href="#linear-gradient"/><linearGradient id="linear-gradient-9" x1="828.17" y1="236.71" x2="877.71" y2="236.71" xlink:href="#linear-gradient"/><linearGradient id="linear-gradient-10" x1="0" y1="86.97" x2="133.37" y2="86.97" xlink:href="#linear-gradient"/><linearGradient id="linear-gradient-11" x1="154.03" y1="86.97" x2="286.93" y2="86.97" xlink:href="#linear-gradient"/><linearGradient id="linear-gradient-12" x1="308.06" y1="86.97" x2="441.43" y2="86.97" xlink:href="#linear-gradient"/><linearGradient id="linear-gradient-13" x1="462.09" y1="86.97" x2="595.46" y2="86.97" xlink:href="#linear-gradient"/><linearGradient id="linear-gradient-14" x1="712.73" y1="86.97" x2="845.63" y2="86.97" xlink:href="#linear-gradient"/><linearGradient id="linear-gradient-15" x1="866.76" y1="86.97" x2="999.66" y2="86.97" xlink:href="#linear-gradient"/><linearGradient id="linear-gradient-16" x1="1020.79" y1="86.97" x2="1153.69" y2="86.97" xlink:href="#linear-gradient"/><linearGradient id="linear-gradient-17" x1="611.53" y1="80.17" x2="716.64" y2="80.17" xlink:href="#linear-gradient"/></defs><g id="Layer_2" data-name="Layer 2"><g id="Layer_1-2" data-name="Layer 1"><path class="cls-1" d="M309,205.75a16.47,16.47,0,0,1,16.51,16.51H313.13a4.17,4.17,0,0,0-4.13-4.13H292.49a4.17,4.17,0,0,0-4.13,4.13v4.13a4,4,0,0,0,1.22,2.91,4,4,0,0,0,2.91,1.21H309A16.49,16.49,0,0,1,325.51,247v4.12A16.49,16.49,0,0,1,309,267.67H292.49A16.49,16.49,0,0,1,276,251.15h12.38a4.17,4.17,0,0,0,4.13,4.13H309a4.17,4.17,0,0,0,4.13-4.13V247A4.17,4.17,0,0,0,309,242.9H292.49A16.49,16.49,0,0,1,276,226.39v-4.13a16.47,16.47,0,0,1,16.51-16.51Z"/><path class="cls-2" d="M367.19,205.75H383.7a16.47,16.47,0,0,1,16.51,16.51v28.89a16.49,16.49,0,0,1-16.51,16.52H367.19a16.49,16.49,0,0,1-16.51-16.52V222.26a16.47,16.47,0,0,1,16.51-16.51Zm16.51,12.38H367.19a4.17,4.17,0,0,0-4.13,4.13v28.89a4.17,4.17,0,0,0,4.13,4.13H383.7a4.17,4.17,0,0,0,4.13-4.13V222.26a4.17,4.17,0,0,0-4.13-4.13Z"/><path class="cls-3" d="M425.38,251.15v-45.4h12.38v45.4a4.17,4.17,0,0,0,4.13,4.13h28.9v12.39h-28.9a16.49,16.49,0,0,1-16.51-16.52Z"/><path class="cls-4" d="M496,251.15v-45.4h12.38v45.4a4.17,4.17,0,0,0,4.13,4.13H529a4.17,4.17,0,0,0,4.13-4.13v-45.4h12.39v45.4A16.49,16.49,0,0,1,529,267.67H512.46A16.49,16.49,0,0,1,496,251.15Z"/><path class="cls-5" d="M616.06,205.75v12.38H599.55v49.54H587.16V218.13H570.65V205.75Z"/><path class="cls-6" d="M641.22,205.75h12.39v61.92H641.22Z"/><path class="cls-7" d="M695.28,205.75H711.8a16.47,16.47,0,0,1,16.51,16.51v28.89a16.49,16.49,0,0,1-16.51,16.52H695.28a16.49,16.49,0,0,1-16.51-16.52V222.26a16.47,16.47,0,0,1,16.51-16.51Zm16.52,12.38H695.28a4.15,4.15,0,0,0-4.12,4.13v28.89a4.15,4.15,0,0,0,4.12,4.13H711.8a4.15,4.15,0,0,0,4.12-4.13V222.26a4,4,0,0,0-1.21-2.91A4,4,0,0,0,711.8,218.13Z"/><path class="cls-8" d="M765.86,222.26v45.41H753.47V222.26A16.47,16.47,0,0,1,770,205.75H786.5A16.47,16.47,0,0,1,803,222.26v45.41H790.62V222.26a4,4,0,0,0-1.21-2.91,4,4,0,0,0-2.91-1.22H770a4.15,4.15,0,0,0-4.12,4.13Z"/><path class="cls-9" d="M861.2,205.75a16.47,16.47,0,0,1,16.51,16.51H865.32a4.15,4.15,0,0,0-4.12-4.13H844.68a4,4,0,0,0-2.91,1.22,4,4,0,0,0-1.21,2.91v4.13a4.13,4.13,0,0,0,4.12,4.12H861.2A16.49,16.49,0,0,1,877.71,247v4.12a16.49,16.49,0,0,1-16.51,16.52H844.68a16.49,16.49,0,0,1-16.51-16.52h12.39a4.15,4.15,0,0,0,4.12,4.13H861.2a4.15,4.15,0,0,0,4.12-4.13V247a4.15,4.15,0,0,0-4.12-4.13H844.68a16.49,16.49,0,0,1-16.51-16.51v-4.13a16.47,16.47,0,0,1,16.51-16.51Z"/><path class="cls-10" d="M133.37,87h-.47V103.4H37.57a33.13,33.13,0,0,0,12,12.22,32.45,32.45,0,0,0,17.14,4.69h66.69v33.34H66.68q-27.71,0-47.19-19.49T0,87Q0,59.74,19.49,40T66.68,20.28q27.24,0,47,19.73T133.37,87ZM37.57,70.06H95.33a34.63,34.63,0,0,0-12-11.74,31.73,31.73,0,0,0-16.68-4.69,32.54,32.54,0,0,0-17.14,4.69A34.63,34.63,0,0,0,37.57,70.06Z"/><path class="cls-11" d="M220.71,153.65q-27.71,0-47.19-19.49T154,87q0-27.23,19.49-47t47.19-19.73Q248,20.28,267.44,40t19.49,47v66.68Zm0-100A31.8,31.8,0,0,0,197,63.49,32.44,32.44,0,0,0,187.37,87a33.37,33.37,0,0,0,56.82,23.71A31.8,31.8,0,0,0,254.06,87a32,32,0,0,0-9.87-23.48A32,32,0,0,0,220.71,53.63Z"/><path class="cls-12" d="M349.85,103.4a40.7,40.7,0,0,1-29.58-12,39.47,39.47,0,0,1-12.21-29.35q0-16.9,12.21-29.35a39.94,39.94,0,0,1,29.58-12.45h91.58V53.63H349.85q-8.44,0-8.45,8.45a7.69,7.69,0,0,0,2.35,5.64,8.21,8.21,0,0,0,6.1,2.34h49.78q16.9,0,29.12,12.45T441,111.86a40.27,40.27,0,0,1-12.21,29.58,39.74,39.74,0,0,1-29.12,12.21H308.06V119.84h91.57a7.94,7.94,0,0,0,5.4-2.35,7.35,7.35,0,0,0,2.59-5.63A8.11,8.11,0,0,0,405,106a7.65,7.65,0,0,0-5.4-2.59Z"/><path class="cls-13" d="M595.46,87H595V103.4H499.66a33.13,33.13,0,0,0,12,12.22,32.45,32.45,0,0,0,17.14,4.69h66.69v33.34H528.77q-27.7,0-47.19-19.49T462.09,87q0-27.23,19.49-47t47.19-19.73q27.24,0,47,19.73T595.46,87Zm-95.8-16.91h57.76a34.57,34.57,0,0,0-12-11.74,31.67,31.67,0,0,0-16.67-4.69,32.54,32.54,0,0,0-17.14,4.69A34.63,34.63,0,0,0,499.66,70.06Z"/><path class="cls-14" d="M717.42,125,788.8,53.63H712.73V20.28H829.19A16,16,0,0,1,840.93,25a17.56,17.56,0,0,1,4.7,12.21,14.42,14.42,0,0,1-4.7,11.27l-71.38,71.38h76.08v33.81H729.16a16.17,16.17,0,0,1-11.74-5.16q-4.21-4.23-4.46-11.27A16.67,16.67,0,0,1,717.42,125Z"/><path class="cls-15" d="M900.1,120.31h99.56v33.34H866.76V20.28h132.9V53.63H900.1V70.06h99.56V103.4H900.1Z"/><path class="cls-16" d="M1087.47,53.63h-33.34v100h-33.34V20.28h66.68q27.22,0,46.73,19.73t19.49,47v66.68h-32.88V87A32,32,0,0,0,1111,63.49,32,32,0,0,0,1087.47,53.63Z"/><path class="cls-17" d="M710,.72C697.4,22.43,684.81,44.14,671.86,66.5l44.78,8.1-97.9,85.75-.79-.64,38.33-66.14-44.75-8.09L709.1,0Z"/></g></g></svg>